<?xml version="1.0" encoding="utf-8"?>
<!-- Generator: Adobe Illustrator 18.1.1, SVG Export Plug-In . SVG Version: 6.00 Build 0)  -->
<!DOCTYPE svg PUBLIC "-//W3C//DTD SVG 1.1//EN" "http://www.w3.org/Graphics/SVG/1.1/DTD/svg11.dtd">
<svg version="1.1" id="Layer_1" xmlns="http://www.w3.org/2000/svg" xmlns:xlink="http://www.w3.org/1999/xlink" x="0px" y="0px"
	 viewBox="0 0 100 100" enable-background="new 0 0 100 100" xml:space="preserve">
<g>
	<path fill="none" stroke="#FFFFFF" stroke-width="0.75" stroke-miterlimit="10" d="M18.5,76.3c0-23.3,0-46.5,0-69.8
		c0.7-2.2,2.2-3.6,4.3-4.3c20.4,0,40.8,0,61.1,0c3.2,1.2,4.5,3.5,4.5,6.8c0,26.5,0,53.1,0,79.6c0,4.6-2.3,6.8-6.9,6.8
		c-16.4,0-32.8,0-49.2,0 M53.4,8.1c-8.9,0-17.9,0-26.8,0c-1.6,0-2.3,0.5-2.3,2.2c0.1,4.3,0.1,8.5,0,12.8c0,1.7,0.7,2.3,2.3,2.3
		c17.8,0,35.6,0,53.4,0c1.7,0,2.3-0.7,2.3-2.4c-0.1-4.1,0-8.3,0-12.4c0-2.2-0.2-2.4-2.5-2.4C71,8.1,62.2,8.1,53.4,8.1z M47.7,42.8
		c0,1.4,0,2.8,0,4.1c0,1,0.4,1.6,1.5,1.6c2.8,0,5.5,0,8.3,0c1,0,1.5-0.5,1.5-1.5c0-2.8,0-5.5,0-8.3c0-1.1-0.6-1.5-1.6-1.5
		c-2.7,0-5.4,0-8.1,0c-1.1,0-1.6,0.5-1.6,1.6C47.8,40.2,47.7,41.5,47.7,42.8z M59,60.5c0-1.4,0-2.8,0-4.1c0-1-0.4-1.6-1.5-1.6
		c-2.8,0-5.5,0-8.3,0c-1,0-1.5,0.5-1.5,1.5c0,2.8,0,5.5,0,8.3c0,1.1,0.6,1.5,1.6,1.5c2.7,0,5.4,0,8.1,0c1.1,0,1.6-0.5,1.6-1.6
		C59,63.2,59,61.9,59,60.5z M36.5,37.3c-1.8,0-3.2,0-4.6,0c-1,0-1.6,0.5-1.6,1.5c0,2.8,0,5.5,0,8.3c0,1,0.5,1.5,1.6,1.5
		c2.6,0,5.3,0,7.9,0c1.2,0,1.7-0.6,1.7-1.8c0-1.4,0-2.8,0-4.1C41.5,36.3,42.3,37.4,36.5,37.3z M70.8,37.3c-1.3,0-2.5,0-3.8,0
		s-1.8,0.6-1.8,1.8c0,2.6,0,5.2,0,7.7c0,1.2,0.5,1.8,1.7,1.8c2.6,0,5.2,0,7.7,0c1.2,0,1.7-0.6,1.7-1.8c0-2.6,0-5.2,0-7.7
		c0-1.3-0.5-1.9-1.8-1.8C73.3,37.3,72.1,37.3,70.8,37.3z M35.9,66.1c1.3,0,2.6,0,4,0c1.1,0,1.7-0.5,1.7-1.6c0-2.7,0-5.4,0-8.1
		c0-1.1-0.6-1.6-1.7-1.6c-2.6,0-5.2,0-7.7,0c-1.2,0-1.8,0.5-1.8,1.7c0,2.6,0,5.3,0,7.9c0,1.2,0.6,1.7,1.8,1.7
		C33.4,66.1,34.6,66.1,35.9,66.1z M70.8,66.1c1.3,0,2.5,0,3.8,0c1.2,0,1.8-0.4,1.8-1.7c0-2.6,0-5.3,0-7.9c0-1.2-0.5-1.7-1.7-1.7
		c-2.6,0-5.2,0-7.7,0c-1.1,0-1.7,0.4-1.7,1.6c0,2.7,0,5.4,0,8.1c0,1.1,0.5,1.7,1.7,1.6C68.2,66.1,69.5,66.1,70.8,66.1z M59,78
		c0-1.4,0.1-2.8-0.1-4.1c-0.1-0.6-0.9-1.5-1.4-1.5c-2.7-0.2-5.5-0.2-8.2,0c-0.5,0-1.4,1-1.4,1.5c-0.2,2.7-0.1,5.4-0.1,8.1
		c0,1,0.5,1.6,1.5,1.6c2.7,0,5.5,0,8.2,0c1,0,1.5-0.5,1.5-1.6C59,80.6,59,79.3,59,78z M30.3,77.6c0,1.3,0,2.6,0,4s0.5,2,1.9,2
		c2.5,0,4.9,0,7.4,0c1.2,0,1.9-0.5,1.9-1.8c0-2.6,0-5.3,0-7.9c0-1-0.4-1.6-1.5-1.6c-2.8,0-5.5,0-8.3,0c-1.1,0-1.5,0.6-1.5,1.6
		C30.3,75.1,30.3,76.4,30.3,77.6z M70.9,72.3c-1.3,0-2.6,0-4,0c-1.2,0-1.8,0.4-1.7,1.7c0,2.6,0,5.2,0,7.7c0,1.3,0.5,1.9,1.8,1.9
		c2.5,0,5,0,7.6,0c1.2,0,1.8-0.5,1.8-1.7c0-2.7,0-5.4,0-8.1c0-1.1-0.5-1.5-1.6-1.5C73.5,72.3,72.2,72.3,70.9,72.3z"/>
	<g>
		<path fill="#FFFFFF" stroke="#FFFFFF" stroke-width="0.25" stroke-miterlimit="10" d="M25,91.6c0,1.9-1.5,3.4-3.4,3.4h-0.3v0.8
			h-0.4V95h-0.3c-1.9,0-3.4-1.5-3.4-3.4v-0.1h0.4c0,0,0,0,0,0.1c0,1.7,1.4,3.1,3.1,3.1H21v-6.2c-0.6-0.1-1.4-0.2-1.6-0.4
			c-1.1-0.6-1.8-1.7-1.8-3c0-1.9,1.5-3.4,3.4-3.5v-0.7h0.4v0.7c1.8,0,3.3,1.5,3.4,3.3h-0.4c-0.1-1.6-1.4-2.9-3-2.9v6.2
			c0,0,0.7,0,1,0.1C23.8,88.5,25,89.9,25,91.6z M20.9,88.1v-6.2c-1.7,0-3.1,1.4-3.1,3.1S19.2,88.1,20.9,88.1z M20.9,88.1
			C20.8,88.1,20.8,88.1,20.9,88.1C20.8,88.1,20.8,88.1,20.9,88.1z M24.6,91.6c0-1.7-1.4-3.1-3.1-3.1c-0.1,0-0.3,0-0.3,0v6.2h0.3
			C23.3,94.7,24.6,93.3,24.6,91.6z"/>
	</g>
	<circle fill="none" stroke="#FFFFFF" stroke-width="0.75" stroke-miterlimit="10" cx="21" cy="88.3" r="9.4"/>
</g>
</svg>
