<?xml version="1.0" encoding="utf-8"?>
<!-- Generator: Adobe Illustrator 18.1.1, SVG Export Plug-In . SVG Version: 6.00 Build 0)  -->
<!DOCTYPE svg PUBLIC "-//W3C//DTD SVG 1.1//EN" "http://www.w3.org/Graphics/SVG/1.1/DTD/svg11.dtd">
<svg version="1.1" id="Layer_1" xmlns="http://www.w3.org/2000/svg" xmlns:xlink="http://www.w3.org/1999/xlink" x="0px" y="0px"
	 viewBox="0 0 100 100" enable-background="new 0 0 100 100" xml:space="preserve">
<g>
	<path fill="#FFFFFF" d="M50,98.3C23.4,98.3,1.7,76.6,1.7,50C1.7,23.3,23.4,1.7,50,1.7c26.7,0,48.3,21.7,48.3,48.3
		C98.3,76.6,76.6,98.3,50,98.3z M50,1.9C23.5,1.9,1.9,23.5,1.9,50c0,26.5,21.6,48.1,48.1,48.1c26.5,0,48.1-21.6,48.1-48.1
		C98.1,23.5,76.5,1.9,50,1.9z"/>
	<path fill="#FFFFFF" d="M50.7,50.1c-0.2,0-0.4,0-0.7-0.3c-0.3-0.3-0.3-0.9,0-1.2c0.6-0.6,8.8-8.4,21-19.9
		C59.3,41.3,52,49.1,51.3,49.9C51.1,50,50.9,50.1,50.7,50.1z M81.6,47.5c-0.7-7.3-3.8-14.1-8.9-19.3l0,0l-1.3-1.3l0,0
		c-6-5.5-13.7-8.6-21.8-8.6c-16.6,0-30.5,12.7-32,29.2h-0.3C18.9,30.9,32.9,18,49.6,18c16.8,0,30.7,12.9,32.3,29.5H81.6z"/>
</g>
</svg>
