<?xml version="1.0" encoding="utf-8"?>
<!-- Generator: Adobe Illustrator 18.1.1, SVG Export Plug-In . SVG Version: 6.00 Build 0)  -->
<!DOCTYPE svg PUBLIC "-//W3C//DTD SVG 1.1//EN" "http://www.w3.org/Graphics/SVG/1.1/DTD/svg11.dtd">
<svg version="1.1" id="Layer_1" xmlns="http://www.w3.org/2000/svg" xmlns:xlink="http://www.w3.org/1999/xlink" x="0px" y="0px"
	 viewBox="0 0 100 100" enable-background="new 0 0 100 100" xml:space="preserve">
<path fill="none" stroke="#FFFFFF" stroke-width="0.75" stroke-miterlimit="10" d="M63.1,89.8c-19.8,0-39.6,0-59.4,0
	c-0.2,0-0.5,0-0.7,0c-0.9,0.1-1.4-0.3-1.4-1.3c0-0.4,0-0.8,0-1.2c0-26.9,0-53.8,0-80.8c0-0.7,0-1.5,0-2.5c1,0,1.6,0,2.2,0
	c18.1,0,36.2,0,54.4,0c1.3,0,2.3,0.4,3.2,1.3c3,3.1,6,6.1,9.1,9.1c0.8,0.8,1.1,1.6,1.1,2.7c0,14.1,0,28.2,0,42.3 M58.9,27.8
	c0-3.6,0-7.2,0-10.8c0-1.7-0.2-1.9-1.9-1.9c-6.5,0-12.9,0-19.4,0c-1.6,0-1.8,0.1-1.8,1.8c0,7.1,0,14.3,0,21.4c0,1.7,0.1,1.8,1.9,1.8
	c6.5,0,12.9,0,19.4,0c1.7,0,1.8-0.1,1.8-1.9C58.9,34.8,58.9,31.3,58.9,27.8z M34.3,43.9c-7.5,0-15.1,0-22.6,0
	c-0.7,0-1.9-0.5-2.1,0.9c-0.1,0.9,0.4,1.2,2,1.2c15.1,0,30.3,0,45.4,0c0.3,0,0.6,0,0.9,0c0.7,0,1-0.4,1-1.1c0-0.6-0.3-0.9-0.9-1
	c-0.5,0-0.9,0-1.4,0C49.1,43.9,41.7,43.9,34.3,43.9z M34.3,72.7c-7.5,0-15,0-22.5,0c-0.5,0-0.9-0.1-1.4,0c-0.4,0.1-0.9,0.5-0.9,0.8
	c0,0.4,0.4,1,0.7,1.1c0.4,0.2,1,0.1,1.5,0.1c15,0,29.9,0,44.9,0c0.5,0,1,0.1,1.4-0.1c0.3-0.2,0.7-0.6,0.7-1c0-0.3-0.4-0.8-0.7-0.9
	c-0.5-0.2-1-0.1-1.5-0.1C49.2,72.7,41.7,72.7,34.3,72.7z M34.4,51.8c7.4,0,14.7,0,22.1,0c0.5,0,1,0,1.5,0c0.7,0,0.9-0.5,0.8-1
	c-0.1-0.4-0.4-0.8-0.8-0.9c-0.4-0.2-0.9-0.1-1.4-0.1c-14.9,0-29.8,0-44.7,0c-0.4,0-0.8,0-1.2,0c-0.6,0-0.9,0.4-0.9,1
	c0,0.6,0.2,1,0.9,1c0.5,0,1,0,1.5,0C19.6,51.8,27,51.8,34.4,51.8z M34.3,57.3c7.5,0,15.1,0,22.6,0c0.8,0,1.9,0.4,2-1
	c0.1-0.9-0.3-1.1-1.9-1.1c-15.1,0-30.2,0-45.2,0c-0.4,0-0.9-0.1-1.2,0.1c-0.3,0.2-0.7,0.6-0.7,1c0,0.3,0.4,0.8,0.7,0.9
	c0.5,0.2,1,0.1,1.5,0.1C19.5,57.3,26.9,57.3,34.3,57.3z M34.3,69c7.5,0,15.1,0,22.6,0c0.8,0,1.9,0.4,2-1c0.1-0.9-0.3-1.1-1.9-1.1
	c-15.1,0-30.2,0-45.2,0c-0.3,0-0.7,0-1,0c-0.6,0-0.9,0.4-0.9,1c0,0.6,0.3,0.9,0.9,1c0.5,0,0.9,0,1.4,0C19.5,69,26.9,69,34.3,69z
	 M34.4,80.6c7.4,0,14.7,0,22.1,0c0.5,0,0.9,0,1.4,0c0.7,0,1-0.4,1-1.1c0-0.6-0.3-0.9-0.9-1c-0.5,0-0.9,0-1.4,0
	c-14.8,0-29.6,0-44.4,0c-0.4,0-0.8,0-1.2,0c-0.7,0-1.1,0.2-1.1,1c0,0.7,0.3,1.1,1,1.1c0.5,0,0.9,0,1.4,0
	C19.6,80.6,27,80.6,34.4,80.6z M34.4,63.1c7.4,0,14.8,0,22.3,0c0.5,0,1.1,0.1,1.5-0.1c0.3-0.1,0.6-0.5,0.6-0.8
	c0-0.3-0.4-0.7-0.7-0.8c-0.3-0.1-0.8-0.1-1.2-0.1c-15.1,0-30.1,0-45.2,0c-0.4,0-0.8-0.1-1.2,0.1c-0.3,0.1-0.6,0.5-0.6,0.8
	c0,0.3,0.4,0.7,0.7,0.8c0.5,0.1,1,0.1,1.5,0.1C19.6,63.1,27,63.1,34.4,63.1z M21.3,22.6c3.1,0,6.3,0,9.4,0c0.5,0,1,0.1,1.4-0.1
	c0.3-0.1,0.7-0.6,0.7-0.9c0-0.3-0.3-0.8-0.7-1c-0.4-0.2-0.9-0.1-1.3-0.1c-6.3,0-12.6,0-18.8,0c-0.4,0-0.8,0-1.2,0
	c-0.7,0.1-0.9,0.5-0.8,1.1c0.1,0.4,0.4,0.8,0.8,0.9c0.4,0.2,0.9,0.1,1.4,0.1C15.1,22.6,18.2,22.6,21.3,22.6z M21.2,28.8
	c3.1,0,6.3,0,9.4,0c0.5,0,1,0.1,1.4-0.1c0.3-0.1,0.7-0.5,0.8-0.9c0.1-0.5-0.1-1-0.8-1.1c-0.4,0-0.8,0-1.2,0c-6.3,0-12.6,0-18.8,0
	c-0.5,0-1-0.1-1.3,0.1c-0.3,0.2-0.7,0.6-0.7,1c0,0.3,0.4,0.8,0.7,0.9c0.4,0.2,0.9,0.1,1.4,0.1C15.1,28.8,18.1,28.8,21.2,28.8z
	 M21.3,34.6c3.1,0,6.3,0,9.4,0c0.5,0,1,0.1,1.3-0.1c0.3-0.2,0.7-0.6,0.7-1c0-0.3-0.4-0.8-0.7-0.9c-0.4-0.2-0.9-0.1-1.4-0.1
	c-6.2,0-12.5,0-18.7,0c-0.5,0-1-0.1-1.4,0.1c-0.3,0.1-0.7,0.6-0.8,0.9c-0.1,1.1,0.7,1.1,1.5,1.1C14.7,34.6,18,34.6,21.3,34.6z
	 M21.3,40.1c3.1,0,6.3,0,9.4,0c0.5,0,1,0.1,1.3-0.1c0.3-0.2,0.7-0.6,0.7-1c0-0.3-0.4-0.8-0.7-0.9c-0.4-0.2-0.9-0.1-1.4-0.1
	c-6.2,0-12.4,0-18.7,0c-0.5,0-1-0.1-1.4,0.1c-0.3,0.1-0.7,0.6-0.8,0.9c-0.1,1.1,0.7,1.1,1.5,1.1C14.7,40.1,18,40.1,21.3,40.1z
	 M21.3,17.2c2.5,0,5,0,7.5,0c1,0,2.1,0,3.1-0.1c0.3,0,0.8-0.5,0.8-0.8c0-0.3-0.3-0.8-0.6-1c-0.4-0.2-0.9-0.1-1.3-0.1
	c-6.3,0-12.6,0-18.8,0c-0.5,0-1-0.1-1.3,0.1c-0.3,0.2-0.7,0.7-0.7,1c0,0.3,0.5,0.7,0.8,0.8c0.3,0.2,0.8,0.1,1.2,0.1
	C15,17.2,18.2,17.2,21.3,17.2z"/>
<path fill="#FFFFFF" d="M81.1,61.4c-9.5,0-17.3,7.7-17.3,17.3c0,9.5,7.7,17.3,17.3,17.3c9.5,0,17.3-7.7,17.3-17.3
	C98.4,69.1,90.6,61.4,81.1,61.4z M80.9,95c-4.7,0-8.6-1.6-11.6-4.7l8.1-3.1c0.7-0.8,0.6-3.5-0.2-4.9c-0.9-1.5-1.4-2.2-1.6-2.6
	c-0.4-0.9-0.9-1.5-0.9-3.2c-0.1-1.9,0.1-1.7,0.2-3.3c0.1-1.5,0.1-3.1,1.3-4.9C77,67,79.6,66,81.1,66c1.9,0,3.3,0.4,4.9,2.2
	c1.4,1.6,1.3,4.1,1.4,4.9c0.1,2.7,0.2,3,0.1,3.4c-0.2,1.3-0.4,2-0.8,3.1c-0.3,0.9-1.1,1.7-1.6,2.7c-0.4,0.7-0.6,1.8-0.6,2.5
	c0,1.5,0,2.2,0.4,2.4l8.1,3.1C89.9,93.4,85.6,95,80.9,95z M85.1,86.5c0,0-0.1-1.9,0.2-3.1c0.3-1.1,1.9-3.1,2.2-4
	c0.1-0.4,0.2-0.7,0.3-1.1c0.3,0,0.5,0.1,0.6-0.1c0.2-1.1,0.7-3.3,0-4c-0.1-0.1-0.2-0.1-0.3-0.1c0-0.1,0-0.2,0-0.4
	c0-2.8-0.3-3.3-0.6-4.3c-0.1-0.6-0.4-1.1-1.1-2c-0.7-0.8-1.6-1.3-2.3-1.6c-0.7-0.3-1.4-0.7-3-0.7c-1.6,0-2.3,0.4-3,0.7
	c-0.6,0.3-1.6,0.7-2.3,1.6c-0.8,0.9-1,1.4-1.1,2c-0.3,1-0.6,1.5-0.6,4.3c0,0.1,0,0.3,0,0.4c-0.1,0-0.2,0-0.3,0.1
	c-0.7,0.7-0.2,2.9,0,4c0,0.1,0.3,0.1,0.6,0.1c0.1,0.4,0.2,0.7,0.3,1.1c0.3,0.9,2.1,3.2,2.3,4.3c0.3,1.2,0.1,2.8,0.1,2.8l-8.3,3.2
	c-0.1-0.1-0.3-0.3-0.4-0.4c-2.4-2.9-3.8-6.6-3.8-10.6c0-9.1,7.4-16.5,16.5-16.5c9.1,0,16.5,7.4,16.5,16.5c0,4.2-1.6,8.1-4.2,11
	L85.1,86.5z"/>
</svg>
