<?xml version="1.0" encoding="utf-8"?>
<!-- Generator: Adobe Illustrator 18.1.1, SVG Export Plug-In . SVG Version: 6.00 Build 0)  -->
<!DOCTYPE svg PUBLIC "-//W3C//DTD SVG 1.1//EN" "http://www.w3.org/Graphics/SVG/1.1/DTD/svg11.dtd">
<svg version="1.1" id="Layer_1" xmlns="http://www.w3.org/2000/svg" xmlns:xlink="http://www.w3.org/1999/xlink" x="0px" y="0px"
	 viewBox="0 0 100 100" enable-background="new 0 0 100 100" xml:space="preserve">
<g>
	<g>
		
			<line fill="none" stroke="#FFFFFF" stroke-width="0.75" stroke-linecap="round" stroke-linejoin="round" stroke-miterlimit="10" x1="19.2" y1="10" x2="10" y2="19.2"/>
		
			<line fill="none" stroke="#FFFFFF" stroke-width="0.75" stroke-linecap="round" stroke-linejoin="round" stroke-miterlimit="10" x1="80.8" y1="89.9" x2="89.9" y2="80.8"/>
		
			<line fill="none" stroke="#FFFFFF" stroke-width="0.75" stroke-linecap="round" stroke-linejoin="round" stroke-miterlimit="10" x1="90.6" y1="19.2" x2="82" y2="10.7"/>
		
			<line fill="none" stroke="#FFFFFF" stroke-width="0.75" stroke-linecap="round" stroke-linejoin="round" stroke-miterlimit="10" x1="10.7" y1="82" x2="19.2" y2="90.6"/>
	</g>
	<g>
		
			<path fill="none" stroke="#FFFFFF" stroke-width="0.75" stroke-linecap="round" stroke-linejoin="round" stroke-miterlimit="10" d="
			M52,66.9C51,67,50,67,48.9,67c-1.8-0.1-3.7-0.5-5.4-1.3l-8.4,20.2c9.5,3.9,20.2,3.9,29.7,0l-8.4-20.2C55,66.3,53.5,66.7,52,66.9z"
			/>
		
			<path fill="none" stroke="#FFFFFF" stroke-width="0.75" stroke-linecap="round" stroke-linejoin="round" stroke-miterlimit="10" d="
			M38,38c1.6-1.6,3.5-2.8,5.5-3.7l-8.4-20.2c-1.2,0.5-2.3,1-3.5,1.6c-3.3,1.8-6.4,4-9.1,6.8s-5,5.9-6.8,9.1
			c-0.6,1.1-1.1,2.3-1.6,3.5l20.2,8.4C35.1,41.5,36.4,39.6,38,38z"/>
		
			<path fill="none" stroke="#FFFFFF" stroke-width="0.75" stroke-linecap="round" stroke-linejoin="round" stroke-miterlimit="10" d="
			M33.2,52.8c-0.3-1.6-0.3-3.2-0.1-4.8c0.2-1.5,0.6-3.1,1.2-4.5l-20.2-8.4c-3.9,9.5-3.9,20.2,0,29.7l20.2-8.4
			C33.8,55.3,33.5,54.1,33.2,52.8z"/>
		
			<path fill="none" stroke="#FFFFFF" stroke-width="0.75" stroke-linecap="round" stroke-linejoin="round" stroke-miterlimit="10" d="
			M38,62c-1.6-1.6-2.9-3.5-3.7-5.5l-20.2,8.4c0.6,1.4,1.2,2.8,2,4.1c1.7,3,3.8,5.9,6.4,8.5c3,3,6.3,5.3,9.8,7.1
			c0.9,0.5,1.9,0.9,2.8,1.3l8.4-20.2C41.5,64.9,39.6,63.6,38,62z"/>
		
			<path fill="none" stroke="#FFFFFF" stroke-width="0.75" stroke-linecap="round" stroke-linejoin="round" stroke-miterlimit="10" d="
			M35.1,14.1l8.4,20.2c1.5-0.6,3-1,4.5-1.2c1.6-0.2,3.2-0.1,4.8,0.1c1.3,0.2,2.5,0.6,3.7,1.1l8.4-20.2
			C55.4,10.2,44.6,10.2,35.1,14.1z"/>
		
			<path fill="none" stroke="#FFFFFF" stroke-width="0.75" stroke-linecap="round" stroke-linejoin="round" stroke-miterlimit="10" d="
			M62,62c-1.6,1.6-3.5,2.8-5.5,3.7l8.4,20.2c1.2-0.5,2.3-1,3.5-1.6c3.3-1.8,6.4-4,9.1-6.8c2.8-2.8,5-5.9,6.8-9.1
			c0.6-1.1,1.1-2.3,1.6-3.5l-20.2-8.4C64.9,58.5,63.6,60.4,62,62z"/>
		
			<path fill="none" stroke="#FFFFFF" stroke-width="0.75" stroke-linecap="round" stroke-linejoin="round" stroke-miterlimit="10" d="
			M67,48.9c0.1,1,0,2-0.1,3.1c-0.2,1.5-0.6,3.1-1.2,4.5l20.2,8.4c3.9-9.5,3.9-20.2,0-29.7l-20.2,8.4C66.4,45.2,66.8,47.1,67,48.9z"
			/>
		
			<path fill="none" stroke="#FFFFFF" stroke-width="0.75" stroke-linecap="round" stroke-linejoin="round" stroke-miterlimit="10" d="
			M62,38c1.6,1.6,2.8,3.5,3.7,5.5l20.2-8.4c-0.4-0.9-0.8-1.9-1.3-2.8c-1.8-3.5-4.2-6.9-7.1-9.8c-2.6-2.6-5.4-4.7-8.5-6.4
			c-1.3-0.8-2.7-1.4-4.1-2l-8.4,20.2C58.5,35.1,60.4,36.4,62,38z"/>
	</g>
	<g>
		
			<path fill="none" stroke="#FFFFFF" stroke-width="0.75" stroke-linecap="round" stroke-linejoin="round" stroke-miterlimit="10" d="
			M26.2,91.9c14.7,8.4,32.9,8.4,47.7,0"/>
		
			<path fill="none" stroke="#FFFFFF" stroke-width="0.75" stroke-linecap="round" stroke-linejoin="round" stroke-miterlimit="10" d="
			M8.1,26.2c-8.4,14.7-8.4,32.9,0,47.7"/>
		
			<path fill="none" stroke="#FFFFFF" stroke-width="0.75" stroke-linecap="round" stroke-linejoin="round" stroke-miterlimit="10" d="
			M91.9,73.8c8.4-14.7,8.4-32.9,0-47.7"/>
		
			<path fill="none" stroke="#FFFFFF" stroke-width="0.75" stroke-linecap="round" stroke-linejoin="round" stroke-miterlimit="10" d="
			M73.8,8.1c-14.7-8.4-32.9-8.4-47.7,0"/>
	</g>
</g>
</svg>
